<?xml version="1.0" encoding="UTF-8" standalone="no"?>
<!DOCTYPE svg PUBLIC "-//W3C//DTD SVG 1.1//EN" "http://www.w3.org/Graphics/SVG/1.1/DTD/svg11.dtd">
<svg xmlns="http://www.w3.org/2000/svg" version="1.1" viewBox="0.00 0.00 512.00 512.00">
<g stroke-width="2.00" fill="none" stroke-linecap="butt">
<path stroke="#ec4524" vector-effect="non-scaling-stroke" d="
  M 256.38 0.00
  Q 256.01 2.91 256.00 4.75
  Q 255.95 32.81 256.04 100.20"
/>
<path stroke="#ff9013" vector-effect="non-scaling-stroke" d="
  M 121.17 178.30
  L 35.01 128.65
  A 1.04 1.00 -27.7 0 0 34.53 128.51
  Q 34.40 128.50 34.23 128.47"
/>
<path stroke="#89c424" vector-effect="non-scaling-stroke" d="
  M 121.25 333.96
  L 34.44 383.85"
/>
<path stroke="#138c92" vector-effect="non-scaling-stroke" d="
  M 384.25 477.29
  Q 359.43 434.77 334.94 392.06
  Q 334.38 391.08 334.52 390.29"
/>
<path stroke="#11a643" vector-effect="non-scaling-stroke" d="
  M 256.00 411.79
  L 255.93 512.00"
/>
</g>
<path fill="#ff4b26" d="
  M 250.56 0.00
  L 256.38 0.00
  Q 256.01 2.91 256.00 4.75
  Q 255.95 32.81 256.04 100.20
  C 199.66 100.57 149.53 129.92 121.17 178.30
  L 35.01 128.65
  A 1.04 1.00 -27.7 0 0 34.53 128.51
  Q 34.40 128.50 34.23 128.47
  C 79.65 50.45 160.17 2.52 250.56 0.00
  Z"
/>
<path fill="#d93f21" d="
  M 256.38 0.00
  L 267.82 0.00
  Q 354.73 5.18 420.81 60.26
  C 430.68 68.48 433.43 78.80 423.27 89.04
  Q 401.23 111.25 379.02 133.26
  C 370.60 141.61 362.30 141.52 353.44 134.66
  C 327.64 114.66 298.25 102.55 265.51 100.77
  Q 260.61 100.50 256.04 100.20
  Q 255.95 32.81 256.00 4.75
  Q 256.01 2.91 256.38 0.00
  Z"
/>
<path fill="#ffd500" d="
  M 34.23 128.47
  Q 34.40 128.50 34.53 128.51
  A 1.04 1.00 -27.7 0 1 35.01 128.65
  L 121.17 178.30
  C 93.15 227.06 93.40 285.15 121.25 333.96
  L 34.44 383.85
  Q 1.58 326.78 0.00 260.69
  L 0.00 251.19
  Q 1.61 185.33 34.23 128.47
  Z"
/>
<path fill="#167ee6" d="
  M 512.00 254.07
  L 512.00 261.55
  C 510.48 352.14 462.50 432.22 384.25 477.29
  Q 359.43 434.77 334.94 392.06
  Q 334.38 391.08 334.52 390.29
  Q 380.75 362.66 401.24 312.14
  Q 401.50 311.50 400.81 311.50
  Q 344.04 311.50 286.92 311.50
  C 273.57 311.50 267.18 305.39 267.24 291.94
  C 267.31 271.43 267.04 250.93 267.25 230.43
  C 267.39 216.78 274.46 211.50 287.51 211.50
  Q 387.38 211.50 487.25 211.49
  C 499.14 211.49 507.49 214.39 509.51 227.32
  Q 511.59 240.57 512.00 254.07
  Z"
/>
<path fill="#12b347" d="
  M 121.25 333.96
  C 149.74 382.13 199.82 411.45 256.00 411.79
  L 255.93 512.00
  L 250.68 512.00
  Q 144.23 508.11 71.19 432.81
  Q 50.37 411.35 34.44 383.85
  L 121.25 333.96
  Z"
/>
<path fill="#0f993e" d="
  M 334.52 390.29
  Q 334.38 391.08 334.94 392.06
  Q 359.43 434.77 384.25 477.29
  Q 383.97 477.61 383.62 477.82
  Q 329.14 509.28 265.91 512.00
  L 255.93 512.00
  L 256.00 411.79
  Q 298.13 411.17 334.52 390.29
  Z"
/>
</svg>
