<?xml version="1.0" encoding="UTF-8" standalone="no"?>
<!DOCTYPE svg PUBLIC "-//W3C//DTD SVG 1.1//EN" "http://www.w3.org/Graphics/SVG/1.1/DTD/svg11.dtd">
<svg xmlns="http://www.w3.org/2000/svg" version="1.1" viewBox="0.00 0.00 512.00 512.00">
<path fill="#000000" d="
  M 154.14 307.67
  Q 191.23 260.90 232.58 217.90
  C 236.63 213.68 239.42 211.33 245.06 213.97
  C 248.55 215.60 250.00 217.96 250.21 221.98
  Q 251.20 240.63 251.20 259.30
  Q 251.20 259.86 251.75 259.89
  Q 270.05 261.12 288.23 260.67
  Q 295.03 260.51 297.66 265.80
  C 299.94 270.37 297.39 273.57 293.84 276.90
  C 264.44 304.49 234.33 331.52 202.37 356.12
  A 0.29 0.29 0.0 0 0 202.35 356.57
  L 228.82 379.21
  Q 229.25 379.58 229.74 379.31
  Q 234.72 376.55 239.87 374.18
  A 0.18 0.17 -72.5 0 1 240.03 374.49
  L 230.58 380.09
  A 0.61 0.61 0.0 0 0 230.50 381.09
  C 235.10 384.94 240.28 389.14 243.28 394.08
  C 260.67 422.78 231.13 454.80 201.29 442.14
  C 190.86 437.71 179.81 425.53 171.81 417.09
  A 0.97 0.96 -46.9 0 0 170.36 417.14
  Q 146.23 446.87 120.27 475.54
  C 119.56 476.32 119.32 476.75 118.19 477.01
  C 89.00 483.67 60.26 491.08 30.51 496.66
  C 17.85 499.03 12.71 494.38 15.42 481.54
  Q 24.77 437.25 35.17 393.18
  Q 35.27 392.75 36.30 391.80
  Q 64.79 365.38 95.11 341.30
  A 0.44 0.44 0.0 0 0 95.15 340.64
  Q 83.95 329.35 73.98 316.77
  C 57.03 295.39 72.12 264.28 98.27 261.86
  Q 112.82 260.52 123.89 270.74
  C 126.37 273.02 128.94 276.62 131.52 279.46
  A 0.69 0.69 0.0 0 0 132.66 279.29
  C 148.13 246.61 158.20 213.10 159.34 176.87
  Q 159.73 164.48 160.45 159.19
  C 179.64 19.28 353.13 -34.70 449.61 67.27
  C 507.54 128.50 511.49 228.76 456.19 292.96
  Q 415.37 340.35 352.96 350.22
  C 343.26 351.75 331.64 352.10 320.99 352.92
  Q 281.92 355.92 246.21 371.46
  A 0.22 0.22 0.0 0 1 246.02 371.06
  C 272.93 357.10 300.83 348.61 330.66 344.99
  C 338.15 344.08 346.05 343.39 353.03 341.91
  C 447.83 321.83 503.59 223.89 468.84 132.17
  C 434.17 40.68 321.33 4.47 239.54 57.55
  C 201.70 82.11 177.94 120.02 168.68 163.85
  C 167.12 171.25 166.48 179.73 165.52 187.72
  Q 159.36 238.77 131.96 282.20
  A 1.32 1.32 0.0 0 0 132.09 283.78
  L 153.40 307.69
  A 0.49 0.49 0.0 0 0 154.14 307.67
  Z
  M 183.10 338.41
  L 201.75 354.55
  A 1.38 1.38 0.0 0 0 203.75 354.35
  Q 234.39 314.47 268.94 277.91
  A 0.39 0.39 0.0 0 0 268.65 277.25
  Q 257.05 277.26 245.28 277.24
  C 237.68 277.22 232.79 273.91 232.78 265.74
  Q 232.75 254.03 232.79 241.49
  Q 232.79 240.51 232.07 241.18
  C 207.91 263.87 182.82 286.50 156.24 306.58
  A 0.90 0.90 0.0 0 0 156.10 307.87
  L 179.55 335.69
  A 0.23 0.22 0.3 0 1 179.23 336.00
  Q 149.48 311.30 120.68 285.48
  C 117.65 282.75 113.98 278.85 110.20 277.27
  C 95.55 271.16 78.35 286.41 84.73 301.57
  Q 86.05 304.70 90.98 309.49
  C 135.13 352.26 162.62 381.01 198.34 416.89
  C 205.84 424.42 210.18 429.38 220.16 427.63
  C 231.95 425.57 238.91 413.11 234.97 401.92
  Q 233.74 398.42 228.27 392.00
  C 213.12 374.21 197.40 356.96 182.76 338.74
  A 0.24 0.24 0.0 0 1 183.10 338.41
  Z
  M 169.38 413.79
  C 144.91 390.18 121.48 366.26 97.79 342.26
  A 0.34 0.34 0.0 0 0 97.28 342.29
  Q 74.23 370.99 49.70 398.44
  A 0.62 0.61 33.4 0 0 49.90 399.41
  C 74.20 410.56 101.52 438.06 112.76 462.32
  A 0.42 0.41 56.5 0 0 113.41 462.46
  Q 140.73 437.99 169.32 415.03
  Q 170.05 414.44 169.38 413.79
  Z
  M 103.80 464.94
  Q 104.52 465.20 104.69 464.53
  A 0.48 0.46 -66.9 0 0 104.49 464.01
  Q 70.15 442.65 48.64 408.37
  A 0.17 0.17 0.0 0 0 48.33 408.44
  L 36.99 474.59
  A 0.49 0.49 0.0 0 0 37.56 475.15
  C 59.23 471.23 80.85 467.09 102.82 464.82
  A 2.30 2.23 51.1 0 1 103.80 464.94
  Z"
/>
<path fill="#000000" d="
  M 257.50 102.62
  C 288.19 56.97 366.57 59.23 396.54 104.47
  A 0.34 0.33 -4.7 0 1 396.12 104.96
  C 368.22 92.78 341.50 85.72 310.92 88.71
  C 293.11 90.45 274.56 96.38 257.96 103.17
  A 0.38 0.37 5.4 0 1 257.50 102.62
  Z"
/>
</svg>
